<?xml version="1.0" encoding="UTF-8"?>
<svg width="50px" height="50px" viewBox="0 0 50 50" version="1.1" xmlns="http://www.w3.org/2000/svg" xmlns:xlink="http://www.w3.org/1999/xlink">
    <!-- Generator: Sketch 47.1 (45422) - http://www.bohemiancoding.com/sketch -->
    <title>incoming call</title>
    <desc>Created with Sketch.</desc>
    <defs></defs>
    <g id="Page-1" stroke="none" stroke-width="1" fill="none" fill-rule="evenodd">
        <g id="incoming-call" fill-rule="nonzero" fill="#A6F0D9">
            <path d="M41.282,23.866 L25.501,23.909 L30.876,18.534 C32.08,17.33 32.08,17.33 30.876,16.169 C29.672,15.008 29.672,15.008 28.511,16.169 L20.857,23.823 C20.728,23.995 20.556,24.167 20.341,24.382 C19.18,25.5 19.18,25.543 20.341,26.704 C20.556,26.919 20.728,27.134 20.9,27.263 L28.554,34.874 C29.672,36.035 29.672,36.035 30.833,34.874 C32.037,33.756 32.037,33.756 30.833,32.552 L25.501,27.177 L41.282,27.134 C42.916,27.134 42.916,27.134 42.916,25.5 C42.916,23.866 42.916,23.866 41.282,23.866 Z M14.794,33.756 C12.3,29.628 12.3,21.372 14.794,17.201 C14.794,17.201 18.105,17.201 18.922,15.567 L23.05,8.128 L17.288,4 C4.904,14.75 4.904,36.25 17.288,47 L23.093,42.872 L18.965,35.433 C18.105,33.756 14.794,33.756 14.794,33.756 Z" id="Shape"></path>
        </g>
    </g>
</svg>