<?xml version="1.0" encoding="UTF-8"?>
<svg width="50px" height="50px" viewBox="0 0 50 50" version="1.1" xmlns="http://www.w3.org/2000/svg" xmlns:xlink="http://www.w3.org/1999/xlink">
    <!-- Generator: Sketch 47.1 (45422) - http://www.bohemiancoding.com/sketch -->
    <title>outcoming call</title>
    <desc>Created with Sketch.</desc>
    <defs></defs>
    <g id="Page-1" stroke="none" stroke-width="1" fill="none" fill-rule="evenodd">
        <g id="outcoming-call" fill-rule="nonzero" fill="#A6F0D9">
            <path d="M21.10425,27.177 L36.88525,27.134 L31.51025,32.509 C30.30625,33.713 30.30625,33.713 31.51025,34.874 C32.71425,36.035 32.71425,36.035 33.87525,34.874 L41.52925,27.22 C41.65825,27.048 41.83025,26.876 42.04525,26.661 C43.20625,25.543 43.20625,25.5 42.04525,24.339 C41.83025,24.124 41.65825,23.909 41.48625,23.78 L33.83225,16.169 C32.71425,15.008 32.71425,15.008 31.55325,16.169 C30.34925,17.287 30.34925,17.287 31.55325,18.491 L36.88525,23.866 L21.10425,23.909 C19.47025,23.909 19.47025,23.909 19.47025,25.543 C19.47025,27.177 19.47025,27.177 21.10425,27.177 Z M14.794,33.756 C12.3,29.628 12.3,21.372 14.794,17.201 C14.794,17.201 18.105,17.201 18.922,15.567 L23.05,8.128 L17.288,4 C4.904,14.75 4.904,36.25 17.288,47 L23.093,42.872 L18.965,35.433 C18.105,33.756 14.794,33.756 14.794,33.756 Z" id="Shape"></path>
        </g>
    </g>
</svg>