<?xml version="1.0" encoding="UTF-8"?>
<svg width="50px" height="50px" viewBox="0 0 50 50" version="1.1" xmlns="http://www.w3.org/2000/svg" xmlns:xlink="http://www.w3.org/1999/xlink">
    <!-- Generator: Sketch 42 (36781) - http://www.bohemiancoding.com/sketch -->
    <title>Callback icon</title>
    <desc>Created with Sketch.</desc>
    <defs></defs>
    <g id="Page-1" stroke="none" stroke-width="1" fill="none" fill-rule="evenodd">
        <g id="Callback-icon" fill-rule="nonzero" fill="#B9D2BA">
            <path d="M37.6953366,30.8746477 L32.3674786,29.0644598 C31.9023466,28.9054797 31.3876729,29.0084144 31.0194664,29.3340622 L29.2156976,30.9260005 C28.8310285,31.2662485 28.2806028,31.3445201 27.8163325,31.1249928 C23.8677696,29.3137759 20.7028881,26.1420587 18.9001944,22.1895973 C18.6754615,21.7290739 18.7461112,21.1790151 19.0799294,20.7902322 L20.6590294,18.9864635 C20.9846772,18.618257 21.0876119,18.1035833 20.9286319,17.6384512 L19.1312822,12.3105933 L18.6562684,10.9304855 C18.587801,10.7346749 18.4758767,10.5569129 18.328894,10.4105379 C18.0936748,10.1719103 17.7776749,10.0299393 17.4430573,10.0125534 C15.5637074,9.88899765 13.7408817,10.6831947 12.5516986,12.1436965 C12.4361547,12.291336 12.3398681,12.413299 12.269258,12.5095856 L12.1216185,12.7021588 C12.0527296,12.7863506 11.9884446,12.8742067 11.9290453,12.9653421 C11.8712734,13.0552096 11.8135014,13.1450771 11.7621486,13.2413637 C9.60532899,16.9965406 12.1408758,24.1538438 17.9180712,30.3675383 C18.1534384,30.6157437 18.3909453,30.8618095 18.6305919,31.1057355 L18.7589741,31.2276985 L18.8809371,31.3560806 C19.1248631,31.6000066 19.3709288,31.8375136 19.6191342,32.0686014 C25.8520861,37.8457967 32.9901319,40.4134391 36.7453089,38.224524 L37.0213304,38.0576272 C37.1124659,37.9982279 37.200322,37.933943 37.2845138,37.865054 L37.477087,37.7174146 L37.842976,37.4349739 C39.3034779,36.2457908 40.0976749,34.4229651 39.9741192,32.5436152 C39.9567332,32.2089976 39.8147622,31.8929977 39.5761346,31.6577786 C39.4297596,31.5107958 39.2519976,31.3988716 39.056187,31.3304042 L37.6953366,30.8746477 Z" id="Shape"></path>
        </g>
    </g>
</svg>